<svg id="Capa_1" enable-background="new 0 0 512 512" height="512" viewBox="0 0 512 512" width="512" xmlns="http://www.w3.org/2000/svg"><g><path d="m466 92.012c25.364 0 46-20.636 46-46s-20.636-46-46-46-46 20.636-46 46 20.636 46 46 46zm0-77c17.094 0 31 13.906 31 31s-13.906 31-31 31-31-13.906-31-31 13.906-31 31-31zm-138.732 451.221-20.172 20.173v-70.879c0-4.143-3.357-7.5-7.5-7.5s-7.5 3.357-7.5 7.5v70.879l-20.171-20.172c-2.929-2.929-7.677-2.93-10.607-.001-2.929 2.93-2.929 7.678 0 10.607l32.97 32.97c2.401 2.501 7.502 3.279 10.612.006l32.976-32.976c2.929-2.93 2.929-7.678 0-10.607-2.931-2.928-7.679-2.928-10.608 0zm-105-23.007-20.172 20.173v-70.88c0-4.143-3.357-7.5-7.5-7.5s-7.5 3.357-7.5 7.5v70.88l-20.171-20.172c-2.929-2.929-7.677-2.93-10.607-.001-2.929 2.93-2.929 7.678 0 10.607l32.97 32.97c2.401 2.501 7.502 3.279 10.612.006l32.976-32.976c2.929-2.93 2.929-7.678 0-10.607-2.931-2.928-7.679-2.928-10.608 0zm-176.268-98.214c-25.364 0-46 20.636-46 46s20.636 46 46 46 46-20.636 46-46-20.636-46-46-46zm0 77c-17.094 0-31-13.906-31-31s13.906-31 31-31 31 13.906 31 31-13.906 31-31 31zm318.468-167.053c0-25.791-20.982-46.773-46.773-46.773s-46.773 20.982-46.773 46.773 20.982 46.773 46.773 46.773 46.773-20.982 46.773-46.773zm-46.774 31.774c-17.52 0-31.773-14.254-31.773-31.773s14.254-31.773 31.773-31.773 31.773 14.254 31.773 31.773-14.253 31.773-31.773 31.773zm105.206-21.235c0-13.098-10.655-23.754-23.753-23.754-11.324 0-21.127 8.057-23.309 19.157-.799 4.064 1.849 8.007 5.913 8.806 4.062.795 8.006-1.849 8.806-5.913.803-4.085 4.415-7.05 8.59-7.05 4.69 0 8.532 3.71 8.744 8.35.197 4.318-2.36 7.575-5.702 12.351-10.057 14.369-16.059 22.228-19.283 26.449-4.045 5.296-5.891 7.713-4.616 11.854.751 2.438 2.598 4.309 5.062 5.128.987.33 25.835.598 34.836.484 4.142-.052 7.457-3.451 7.404-7.594-.052-4.109-3.399-7.405-7.497-7.405-.032 0-.064 0-.097.001-6.188.077-12.745.13-18.259.143 3.502-4.691 8.31-11.271 14.74-20.459 4.876-6.966 8.421-13.351 8.421-20.548zm-192.06-42.312c6.368 0 12.51 1.875 17.76 5.422 3.432 2.318 8.094 1.416 10.413-2.017 2.318-3.432 1.416-8.094-2.017-10.413-7.739-5.229-16.784-7.992-26.156-7.992-25.791 0-46.773 20.982-46.773 46.773s20.982 46.773 46.773 46.773c10.241 0 19.42-3.354 26.544-9.698 1.399-1.247 2.727-2.616 3.946-4.071 2.661-3.174 2.244-7.904-.931-10.565-3.174-2.661-7.904-2.246-10.565.931-.754.898-1.57 1.742-2.428 2.506-4.395 3.914-9.969 5.898-16.566 5.898-17.52 0-31.773-14.254-31.773-31.773s14.253-31.774 31.773-31.774zm201.428 220.04-20.172 20.173v-70.88c0-4.143-3.357-7.5-7.5-7.5s-7.5 3.357-7.5 7.5v70.88l-20.171-20.172c-2.929-2.929-7.677-2.93-10.607-.001-2.929 2.93-2.929 7.678 0 10.607l32.97 32.97c2.401 2.501 7.502 3.279 10.612.006l32.976-32.976c2.929-2.93 2.929-7.678 0-10.607-2.931-2.928-7.679-2.928-10.608 0zm-2.669-265.478c-4.254-.694-7.624-4.172-8.386-8.654-4.788-28.174-19.466-53.955-41.331-72.594-22.115-18.852-50.321-29.234-79.421-29.234-11.633 0-23.122 1.664-34.138 4.86-6.185-21.751-19.557-40.689-38.298-53.932-3.383-2.392-8.063-1.584-10.453 1.797-2.391 3.383-1.586 8.062 1.797 10.453 16.197 11.445 27.665 27.889 32.791 46.754-11.208 4.807-21.716 11.285-31.12 19.302-21.865 18.639-36.544 44.42-41.332 72.594-.762 4.482-4.132 7.96-8.385 8.655-22.771 3.72-43.627 15.46-58.725 33.056-5.725 6.672-10.486 14.038-14.2 21.877h-18.218c-17.416 0-33.782-6.78-46.087-19.094-12.313-12.311-19.093-28.679-19.093-46.086 0-32.096 22.954-59.142 54.576-64.308 9.097-1.481 16.265-8.706 17.837-17.975 6.919-40.682 41.941-70.208 83.277-70.208 6.579 0 13.129.758 19.466 2.253 4.03.954 8.07-1.547 9.021-5.578s-1.546-8.07-5.578-9.021c-7.464-1.761-15.172-2.653-22.909-2.653-23.633 0-46.539 8.432-64.5 23.742-17.753 15.135-29.674 36.07-33.565 58.953-.5 2.948-2.694 5.232-5.464 5.683-18.561 3.032-35.559 12.602-47.863 26.943-12.444 14.505-19.298 33.032-19.298 52.169 0 21.414 8.341 41.549 23.484 56.691 15.136 15.146 35.271 23.488 56.695 23.488h12.578c-2.513 8.757-3.836 17.88-3.836 27.125 0 54.245 44.131 98.376 98.376 98.376h131.941c4.143 0 7.5-3.357 7.5-7.5s-3.357-7.5-7.5-7.5h-131.94c-45.974 0-83.376-37.402-83.376-83.377 0-19.896 7.124-39.157 20.061-54.233 12.799-14.918 30.471-24.868 49.759-28.02 10.578-1.728 18.919-10.145 20.754-20.945 4.2-24.712 17.083-47.332 36.275-63.691 19.404-16.541 44.154-25.65 69.69-25.65 25.537 0 50.286 9.109 69.69 25.65 19.191 16.359 32.074 38.979 36.274 63.691 1.835 10.8 10.176 19.218 20.755 20.945 19.288 3.151 36.96 13.102 49.759 28.02 12.937 15.077 20.061 34.337 20.061 54.235 0 45.974-37.402 83.376-83.377 83.376h-59.384c-4.143 0-7.5 3.357-7.5 7.5s3.357 7.5 7.5 7.5h59.384c54.245 0 98.377-44.132 98.377-98.377 0-23.478-8.408-46.207-23.677-64.001-15.097-17.596-35.953-29.336-58.724-33.057z"/></g></svg>