<?xml version="1.0" encoding="UTF-8"?>
<svg xmlns="http://www.w3.org/2000/svg" viewBox="0 0 64 64" width="512" height="512"><g id="Outline"><g id="Outline-2" data-name="Outline"><path d="M35.4,23.8V22.4h1.4A2.2,2.2,0,0,0,39,20.2V17.8a2.2,2.2,0,0,0-2.2-2.2H35.4V14.2A2.2,2.2,0,0,0,33.2,12H30.8a2.2,2.2,0,0,0-2.2,2.2v1.4H27.2A2.2,2.2,0,0,0,25,17.8v2.4a2.2,2.2,0,0,0,2.2,2.2h1.4v1.4A2.2,2.2,0,0,0,30.8,26h2.4A2.2,2.2,0,0,0,35.4,23.8Zm-4.8,0V21.4a1,1,0,0,0-1-1H27.2a.2.2,0,0,1-.2-.2V17.8a.2.2,0,0,1,.2-.2h2.4a1,1,0,0,0,1-1V14.2a.2.2,0,0,1,.2-.2h2.4a.2.2,0,0,1,.2.2v2.4a1,1,0,0,0,1,1h2.4a.2.2,0,0,1,.2.2v2.4a.2.2,0,0,1-.2.2H34.4a1,1,0,0,0-1,1v2.4a.2.2,0,0,1-.2.2H30.8A.2.2,0,0,1,30.6,23.8Z"/><path d="M11.561,20.024a27.87,27.87,0,0,0,3.094,8,1,1,0,0,0,1.73-1.006,25.816,25.816,0,0,1-2.871-7.43,1,1,0,0,0-1.953.431Z"/><circle cx="12" cy="16" r="1"/><circle cx="48.48" cy="27.526" r="1"/><path d="M50.137,25.124a1,1,0,0,0,.928-.626,29.868,29.868,0,0,0,1.992-8.4,1,1,0,0,0-1.99-.2A27.881,27.881,0,0,1,49.21,23.75a1,1,0,0,0,.927,1.374Z"/><path d="M49.067,8.718a1.976,1.976,0,0,0-2.452-1.811C40.673,8.338,35.392,4.327,33.4,2.537a2.09,2.09,0,0,0-2.792,0C28.6,4.323,23.282,8.338,17.387,6.91a2.007,2.007,0,0,0-2.454,1.81c-.621,8.85.387,21.394,16.235,28.111a2.142,2.142,0,0,0,1.663,0C48.68,30.114,49.688,17.569,49.067,8.718ZM32.05,34.99a.146.146,0,0,1-.1,0C17.443,28.841,16.3,17.8,16.917,8.854c6.822,1.647,12.774-2.827,15.018-4.83a.091.091,0,0,1,.125,0c2.232,2,8.16,6.479,15,4.794C47.711,17.776,46.569,28.831,32.05,34.99Z"/><path d="M25,53.019v-4.4a4.968,4.968,0,0,0-1.465-3.535L12.347,33.9A3.521,3.521,0,0,0,9,32.976V25.643a3.627,3.627,0,0,0-3.143-3.625A3.533,3.533,0,0,0,2,25.5V40.923a4.968,4.968,0,0,0,1.465,3.535L10,50.994v2.025a2.178,2.178,0,0,0-2,2.164v4.634A2.185,2.185,0,0,0,10.184,62H24.816A2.185,2.185,0,0,0,27,59.817V55.183A2.178,2.178,0,0,0,25,53.019ZM4.879,43.044A3.017,3.017,0,0,1,4,40.923V25.5a1.514,1.514,0,0,1,1.658-1.492A1.6,1.6,0,0,1,7,25.643v8.763a3.4,3.4,0,0,0,.394,4.437l4.144,4.145a1,1,0,1,0,1.414-1.414L8.825,37.447a1.431,1.431,0,0,1,0-2.12,1.472,1.472,0,0,1,2.118,0L22.121,46.5A3.02,3.02,0,0,1,23,48.621V53H12V50.58a1,1,0,0,0-.293-.707ZM25,59.817a.183.183,0,0,1-.184.183H10.184A.183.183,0,0,1,10,59.817V55.183A.183.183,0,0,1,10.184,55H24.816a.183.183,0,0,1,.184.183Z"/><path d="M37,55.183v4.634A2.185,2.185,0,0,0,39.184,62H53.816A2.185,2.185,0,0,0,56,59.817V55.183a2.178,2.178,0,0,0-2-2.164V50.994l6.535-6.536A4.968,4.968,0,0,0,62,40.923V25.5a3.533,3.533,0,0,0-3.857-3.482A3.627,3.627,0,0,0,55,25.643v7.333a3.521,3.521,0,0,0-3.347.921L40.465,45.086A4.968,4.968,0,0,0,39,48.621v4.4A2.178,2.178,0,0,0,37,55.183Zm15.293-5.31A1,1,0,0,0,52,50.58V53H41V48.621a3.02,3.02,0,0,1,.879-2.121L53.055,35.324a1.472,1.472,0,0,1,2.118,0,1.431,1.431,0,0,1,0,2.12l-4.127,4.127a1,1,0,0,0,1.414,1.414l4.144-4.145A3.4,3.4,0,0,0,57,34.406V25.643a1.6,1.6,0,0,1,1.342-1.635A1.514,1.514,0,0,1,60,25.5V40.923a3.017,3.017,0,0,1-.879,2.121ZM39,55.183A.183.183,0,0,1,39.184,55H53.816a.183.183,0,0,1,.184.183v4.634a.183.183,0,0,1-.184.183H39.184A.183.183,0,0,1,39,59.817Z"/></g></g></svg>
