<svg id="Layer_1" enable-background="new 0 0 510 510" height="512" viewBox="0 0 510 510" width="512" xmlns="http://www.w3.org/2000/svg"><path d="m75 374.999h435v-253.929l-417.25-30.909-3.416-75.162h-89.334v30h60.666l13.638 300.018c-59.128 3.096-58.477 87.792.697 89.982-.001 0 15.02 0 15.02 0-18.547 24.059-.653 60.283 29.98 60 30.63.285 48.53-35.947 29.979-60h180.04c-18.547 24.059-.653 60.283 29.98 60 30.63.285 48.53-35.947 29.979-60h60.021v-30h-375c-19.84-.737-19.896-29.239 0-30zm29.334-30-1.364-30h377.03v30c-18.009 0-357.683 0-375.666 0zm240.666-60v-146.07l45 3.334v142.736zm-30 0h-45v-151.625l45 3.333zm-75 0h-45v-157.181l45 3.334zm240 0h-60v-140.514l60 4.444zm-315-159.403v159.403h-63.394l-7.484-164.653z"/></svg>