<svg id="Capa_1" enable-background="new 0 0 512 512" height="512" viewBox="0 0 512 512" width="512" xmlns="http://www.w3.org/2000/svg"><g><path d="m129.739 279.575c3.299-3.643 4.142-8.9 2.149-13.395-1.997-4.5-6.466-7.409-11.388-7.409h-24.118c1.829-39.861 18.22-77.075 46.621-105.485 11.17-11.17 23.693-20.48 37.382-27.828.806 3.625 4.158 10.302 6.138 13.733 2.131 3.69 4.572 7.234 7.254 10.533 4.467 5.49 12.125 7.331 18.628 4.479 3.735-1.638 7.891-1.414 11.405.616 3.514 2.029 5.787 5.516 6.235 9.567.781 7.05 6.204 12.761 13.187 13.887 4.246.685 8.517 1.028 12.787 1.027 4.342 0 8.683-.354 12.989-1.063 6.833-1.124 12.147-6.819 12.922-13.847.447-4.053 2.721-7.542 6.237-9.572 3.514-2.03 7.673-2.254 11.408-.614 6.474 2.842 14.062 1.087 18.452-4.268 7.589-9.256 12.605-20.223 13.553-24.451 24.351 13.142 45.242 32.609 59.994 56.207 2.295 3.654 6.08 5.965 10.382 6.342.411.036.819.054 1.226.054 3.865 0 7.506-1.608 10.143-4.522l22.211-24.632c4.254-4.739 4.696-11.719 1.074-16.977-27.059-39.247-66.634-68.925-111.676-83.84-2.007-3.377-4.26-6.631-6.733-9.671-4.467-5.489-12.127-7.331-18.628-4.479-3.733 1.638-7.889 1.414-11.405-.616-3.515-2.029-5.788-5.518-6.236-9.57-.776-7.022-6.082-12.713-12.902-13.838-8.657-1.429-17.426-1.432-26.061-.011-6.832 1.125-12.146 6.82-12.921 13.847-.447 4.053-2.721 7.542-6.237 9.572-3.515 2.03-7.673 2.254-11.407.614-6.474-2.841-14.061-1.087-18.453 4.268-2.563 3.126-4.866 6.436-6.919 9.895-25.132 8.311-48.358 21.011-69.065 37.802-3.217 2.609-3.71 7.331-1.102 10.549 1.482 1.828 3.646 2.777 5.83 2.777 1.66 0 3.33-.548 4.719-1.675 16.03-12.998 33.676-23.365 52.61-30.941.158 4.748 2.444 9.325 6.441 12.263 4.934 3.627 6.421 9.96 4.089 15.263-21.831 8.808-41.39 21.749-58.158 38.517-33.007 33.018-51.185 76.91-51.185 123.59 0 4.142 3.358 7.5 7.5 7.5h26.066l-48.296 53.57-48.304-53.57h26.065c4.142 0 7.5-3.358 7.5-7.5 0-49.936 18.224-98.006 51.313-135.354 2.747-3.101 2.46-7.84-.64-10.587-3.102-2.747-7.841-2.46-10.587.64-33.862 38.219-53.222 86.901-54.958 137.801h-24.419c-4.915 0-9.381 2.903-11.378 7.396s-1.161 9.752 2.129 13.396l54.034 59.924c2.358 2.61 5.727 4.107 9.244 4.107s6.886-1.497 9.251-4.113zm293.96-129.915-20.357 22.576c-19.507-30.503-48.464-54.555-81.922-68.082-.69-1.572-1.075-3.283-1.075-5.071 0-4.059 1.884-7.77 5.168-10.185 3.995-2.936 6.283-7.505 6.446-12.246 36.773 14.776 68.939 40.278 91.74 73.008zm-217.326-91.962c8.033 3.527 17.355 3.02 24.937-1.359 7.582-4.377 12.683-12.197 13.645-20.917.043-.389.267-.662.449-.691 7.017-1.155 14.143-1.152 21.182.01.177.029.394.312.436.687.964 8.718 6.065 16.536 13.644 20.912 7.58 4.377 16.901 4.884 24.931 1.362.363-.158.732-.078.965.208 4.223 5.192 7.808 11.243 10.37 17.961.132.346.016.707-.302.941-7.067 5.193-11.286 13.519-11.286 22.271 0 8.834 4.332 17.16 11.284 22.269.316.233.431.594.298.943-2.508 6.591-6.041 12.691-10.499 18.13-.118.143-.466.2-.823.043-8.033-3.528-17.355-3.02-24.937 1.359-7.582 4.377-12.683 12.197-13.645 20.917-.043.389-.266.661-.448.691-6.941 1.142-13.989 1.151-20.952.028-.368-.06-.624-.339-.667-.73-.965-8.715-6.066-16.531-13.644-20.906-4.238-2.447-9.019-3.685-13.817-3.685-3.782 0-7.574.77-11.115 2.323-.361.16-.732.078-.965-.208-2.182-2.683-4.167-5.565-5.901-8.568-1.734-3.004-3.238-6.165-4.469-9.394-.132-.346-.016-.707.302-.941 6.924-5.088 11.286-13.402 11.286-22.272 0-8.751-4.219-17.076-11.284-22.269-.316-.233-.431-.594-.298-.943 2.508-6.591 6.04-12.691 10.499-18.129.118-.142.467-.199.824-.043z"/><path d="m508.772 252.978-54.033-59.914c-2.358-2.61-5.727-4.107-9.244-4.107s-6.886 1.497-9.25 4.113l-54.025 59.915c-3.337 3.709-4.15 8.845-2.12 13.401 2.029 4.555 6.388 7.385 11.375 7.385h24.114c-1.271 27.545-9.662 54.321-24.339 77.599-2.209 3.503-1.16 8.135 2.344 10.344 3.503 2.21 8.135 1.159 10.344-2.344 16.565-26.272 25.813-56.613 26.742-87.728.108-3.355-1.171-6.664-3.508-9.077-2.335-2.411-5.596-3.794-8.948-3.794h-21.025l48.295-53.561 48.303 53.561h-21.174c-6.714 0-12.298 5.447-12.448 12.143-.916 41.263-14.085 80.765-38.083 114.234-21.206 29.576-49.538 52.731-82.43 67.496l1.958-33.981c14.721-8.281 28.158-18.643 39.983-30.857 2.881-2.976 2.805-7.724-.171-10.605-2.977-2.882-7.726-2.805-10.605.171-8.52 8.8-17.961 16.536-28.16 23.13l5.133-89.085h5.064c6.893 0 12.5-5.607 12.5-12.5v-35.023c0-6.892-5.607-12.499-12.5-12.499h-58.511v-17.225c0-13.065-10.63-23.695-23.695-23.695h-29.339c-13.065 0-23.695 10.629-23.695 23.695v17.225h-58.511c-6.893 0-12.5 5.607-12.5 12.5v35.022c0 6.893 5.607 12.5 12.5 12.5h5.064l5.132 89.071c-19.66-12.716-36.412-29.655-48.904-49.612-2.292-3.658-6.074-5.973-10.375-6.352-4.323-.375-8.463 1.247-11.38 4.471l-22.2 24.609c-4.277 4.741-4.721 11.728-1.085 16.982 24.475 35.487 58.256 62.64 97.911 78.774l.691 11.991c.381 6.606 5.862 11.781 12.479 11.781h139.082c6.617 0 12.099-5.175 12.479-11.781l.691-11.985c38.339-15.615 71.314-41.628 95.584-75.478 25.277-35.254 39.364-76.735 40.818-120.118h24.422c4.987 0 9.346-2.83 11.375-7.385 2.031-4.556 1.219-9.691-2.125-13.407zm-276.148-18.807c0-4.794 3.9-8.695 8.695-8.695h29.339c4.794 0 8.695 3.9 8.695 8.695v17.225h-46.729zm-71.011 32.224h188.751v30.022h-188.751zm-73.333 116.492 20.353-22.563c15.489 24.202 36.744 44.26 61.722 58.316l1.959 34.002c-33.781-15.143-62.652-39.069-84.034-69.755zm100.528 95.246-9.605-166.716h153.572l-9.605 166.716z"/><path d="m225.124 349.873c-4.142 0-7.5 3.358-7.5 7.5v74.804c0 4.142 3.358 7.5 7.5 7.5s7.5-3.358 7.5-7.5v-74.804c0-4.142-3.358-7.5-7.5-7.5z"/><path d="m286.853 349.873c-4.142 0-7.5 3.358-7.5 7.5v74.804c0 4.142 3.358 7.5 7.5 7.5s7.5-3.358 7.5-7.5v-74.804c0-4.142-3.358-7.5-7.5-7.5z"/><path d="m255.989 127.83c15.851 0 28.746-12.895 28.746-28.746s-12.895-28.746-28.746-28.746-28.747 12.895-28.747 28.746 12.896 28.746 28.747 28.746zm0-42.493c7.58 0 13.746 6.166 13.746 13.746s-6.166 13.746-13.746 13.746-13.747-6.166-13.747-13.746c0-7.579 6.167-13.746 13.747-13.746z"/></g></svg>